<svg xmlns="http://www.w3.org/2000/svg" width="36" height="36" viewBox="0 0 36 36">
  <g id="Group_41" data-name="Group 41" transform="translate(-240 -28)">
    <circle id="Ellipse_26" data-name="Ellipse 26" cx="18" cy="18" r="18" transform="translate(240 28)" fill="#06b276"/>
    <path id="Path_6" data-name="Path 6" d="M15.549-103.508a12.944,12.944,0,0,1-5.768-1.761L8.814-99.19a14.752,14.752,0,0,0,5.975,1.105c5.457,0,8.842-2.418,8.842-6.493,0-2.659-1.761-3.937-5.284-4.835-1.243-.311-1.727-.553-1.727-.933,0-.518.829-.553,1.243-.553a10.382,10.382,0,0,1,1.381.138,14.12,14.12,0,0,1,4.075,1.347l.933-5.906a16.783,16.783,0,0,0-6.113-1.071c-5.008,0-7.978,2.521-7.978,6.528,0,2.9,2.072,4.179,4.973,4.9C16.378-104.613,16.378-103.508,15.549-103.508Zm9.6-2.107Z" transform="translate(241.018 153.238)" fill="#fff"/>
  </g>
</svg>
