<svg xmlns="http://www.w3.org/2000/svg" xmlns:xlink="http://www.w3.org/1999/xlink" width="950" height="566.002" viewBox="0 0 978 566.002">
  <defs>
    <filter id="Subtraction_2" x="0" y="0" width="978" height="566.002" filterUnits="userSpaceOnUse">
      <feOffset dy="3" input="SourceAlpha"/>
      <feGaussianBlur stdDeviation="3" result="blur"/>
      <feFlood flood-opacity="0.161"/>
      <feComposite operator="in" in2="blur"/>
      <feComposite in="SourceGraphic"/>
    </filter>
  </defs>
  <g transform="matrix(1, 0, 0, 1, 0, 0)" filter="url(#Subtraction_2)">
    <path id="Subtraction_2-2" data-name="Subtraction 2" d="M-8338.365,8h-26.62l-20.4-35.075-32.11,28.92,2.352,5.774c.046.116.1.241.158.381h-690.264l27.422-20.683-36.157-31.434L-9182.677,8h-38.048l57.166-43.408-36.157-31.437-36.47,27.641a17.46,17.46,0,0,1-10.452,3.531A19.788,19.788,0,0,1-9258-39.5v-15.25l38.611-29.2-36.157-31.434-2.454,1.868V-429.163l1.751,3.019c11.078-4.9,22.518-12.622,34-22.963a127.111,127.111,0,0,0,17.093-18.45,66.728,66.728,0,0,0,9.669-17.549,33.434,33.434,0,0,0,1.868-15.816,24.953,24.953,0,0,0-6.311-13.25,17.231,17.231,0,0,0-13.437-6.069,36.277,36.277,0,0,0-13.219,3.006,116.77,116.77,0,0,0-16.692,8.617c-5.685,3.454-8.72,4.862-10.478,4.862a1.843,1.843,0,0,1-1.458-.571c-.773-.86-.526-2.179.735-3.922a26.807,26.807,0,0,1,3.645-3.851,92.951,92.951,0,0,1,7.453-5.754c7.888-5.487,18.027-10.869,25.234-13.4l-5.095-8.75h17.908a51.967,51.967,0,0,0,9.517,14.95,39.085,39.085,0,0,0,12.8,9.6,34.019,34.019,0,0,0,14.205,3.059,41.559,41.559,0,0,0,16.634-3.663,58.988,58.988,0,0,0,15.794-10.374A74.389,74.389,0,0,0-9124.422-540h17.053l13.858,23.988L-9066.873-540h631.281c1.629,8.157,5.826,16.447,12.14,23.974a72.065,72.065,0,0,0,15.263,13.906A50.078,50.078,0,0,0-8400.7-498a36.829,36.829,0,0,0,7.071,2.319l.3.36c-.021,0-2.433.5-7.078,3.181l-34.961,18.608,30.8,36.705L-8298-493.935v26.1l-56.233,30.167,30.795,36.705L-8298-414.583v28.953l-8.682,4.636,8.682,10.35v263.366a57.538,57.538,0,0,0-11.327,8.126,61.256,61.256,0,0,0-13.745,19.045,59.735,59.735,0,0,0-3.829,10.4,35.2,35.2,0,0,0-1.274,9.291l-.348.315-.044-.293,0-.024a8.926,8.926,0,0,0-2.069-5.193l-5.178-6.1-32.111,28.918L-8338.366,8ZM-8298-15.921l0,0-11.64-20.043a17.334,17.334,0,0,1-2.031-12.042,20.947,20.947,0,0,1,6.83-11.413,9.16,9.16,0,0,1,5.96-2.7,5.9,5.9,0,0,1,.883.066v46.133Zm-960-443.768V-469.8a97.845,97.845,0,0,0,13.831-7.167c.683-.4,1.382-.8,2.267-1.322,4.857-2.839,8.366-4.89,10.131-4.89a1.255,1.255,0,0,1,.99.374c.763.846.45,2.164-.954,4.029a44.168,44.168,0,0,1-5.346,5.471c-4.929,4.438-12.553,9.4-20.918,13.614Zm960-49.216,0,0-19.11-22.778-5.85,2.152a13.143,13.143,0,0,0-4.689,2.709l-.3-.362c1.774-3.188,2.094-7.619.923-12.815H-8318a19.872,19.872,0,0,1,7.785,1.572,19.94,19.94,0,0,1,6.358,4.286,19.944,19.944,0,0,1,4.286,6.358A19.871,19.871,0,0,1-8298-520v11.1Zm-72.51-3.76h0a23.3,23.3,0,0,1-10.373-2.592,28.132,28.132,0,0,1-8.826-7.011,19.643,19.643,0,0,1-4.41-8.931,13.544,13.544,0,0,1,1.218-8.8h33.265c.354.377.7.763,1.017,1.146a21.551,21.551,0,0,1,3.521,5.751,15.709,15.709,0,0,1,1.2,5.888,13.286,13.286,0,0,1-5.029,10.39,17.584,17.584,0,0,1-5.53,3.159A18.32,18.32,0,0,1-8370.511-512.665Z" transform="translate(9267 546)" fill="#fff"/>
  </g>
</svg>
