<svg xmlns="http://www.w3.org/2000/svg" width="31.585" height="42.113" viewBox="0 0 31.585 42.113">
  <path id="Icon_awesome-file-upload" data-name="Icon awesome-file-upload" d="M18.425,11.186V0H1.974A1.969,1.969,0,0,0,0,1.974V40.139a1.969,1.969,0,0,0,1.974,1.974H29.611a1.969,1.969,0,0,0,1.974-1.974V13.16H20.4A1.98,1.98,0,0,1,18.425,11.186Zm5.361,17.767H18.425v6.58a1.316,1.316,0,0,1-1.316,1.316H14.476a1.316,1.316,0,0,1-1.316-1.316v-6.58H7.8a1.316,1.316,0,0,1-.927-2.25L14.8,18.832a1.4,1.4,0,0,1,1.977,0L24.711,26.7A1.316,1.316,0,0,1,23.786,28.954ZM31.009,8.637,22.957.576A1.973,1.973,0,0,0,21.558,0h-.5V10.528H31.585v-.5A1.968,1.968,0,0,0,31.009,8.637Z" fill="#B5B5B5"/>
</svg>
