<svg xmlns="http://www.w3.org/2000/svg" width="27.537" height="24.477" viewBox="0 0 27.537 24.477">
  <path id="Icon_awesome-trophy" data-name="Icon awesome-trophy" d="M26.39,3.06H21.418V1.147A1.145,1.145,0,0,0,20.27,0h-13A1.145,1.145,0,0,0,6.119,1.147V3.06H1.147A1.145,1.145,0,0,0,0,4.207V6.884A6.239,6.239,0,0,0,2.959,11.7a11.2,11.2,0,0,0,5.259,1.994,10.575,10.575,0,0,0,3.256,3.519v3.442H9.179c-1.688,0-3.06.99-3.06,2.677V23.9a.575.575,0,0,0,.574.574H20.844a.575.575,0,0,0,.574-.574V23.33c0-1.688-1.372-2.677-3.06-2.677H16.063V17.211a10.575,10.575,0,0,0,3.256-3.519A11.161,11.161,0,0,0,24.578,11.7a6.252,6.252,0,0,0,2.959-4.814V4.207A1.145,1.145,0,0,0,26.39,3.06ZM4.747,9.217A3.517,3.517,0,0,1,3.06,6.884V6.119H6.129a17.171,17.171,0,0,0,.612,4.121A7.7,7.7,0,0,1,4.747,9.217Zm19.73-2.333A3.673,3.673,0,0,1,22.79,9.217a7.734,7.734,0,0,1-2,1.023A17.171,17.171,0,0,0,21.4,6.119h3.074Z" fill="#06B276"/>
</svg>
