<?xml version="1.0" encoding="utf-8"?>
<!-- Generator: Adobe Illustrator 28.2.0, SVG Export Plug-In . SVG Version: 6.00 Build 0)  -->
<svg version="1.1" id="Layer_1" xmlns="http://www.w3.org/2000/svg" xmlns:xlink="http://www.w3.org/1999/xlink" x="0px" y="0px"
	 viewBox="0 0 91 28.5" style="enable-background:new 0 0 91 28.5;" xml:space="preserve">
<style type="text/css">
	.st0{fill:#FFFFFF;}
</style>
<g id="Group_35">
	<path class="st0" d="M85.3,0H5.7C2.6,0,0,2.6,0,5.7v12.2c0,3.2,2.6,5.7,5.7,5.7h19.6v-0.7H5.7c-2.8,0-5-2.2-5-5V5.7
		c0-2.8,2.2-5,5-5h79.5c2.8,0,5,2.2,5,5v12.2c0,2.8-2.2,5-5,5H37.8v0.7h47.5c3.2,0,5.7-2.6,5.7-5.7V5.7C91,2.6,88.4,0,85.3,0z"/>
	<g id="Group_6">
		<path id="Path_6" class="st0" d="M12.9,14.4c0,0.4-0.7,0.5-1.4,0.5c-1.7-0.1-3.4-0.6-4.9-1.5l-0.8,5.2c1.6,0.7,3.3,1,5.1,0.9
			c4.7,0,7.5-2.1,7.5-5.5c0-2.3-1.5-3.4-4.5-4.1c-1.1-0.3-1.5-0.5-1.5-0.8c0-0.4,0.7-0.5,1.1-0.5c0.4,0,0.8,0.1,1.2,0.1
			c1.2,0.2,2.4,0.6,3.5,1.1l0.8-5c-1.7-0.6-3.4-0.9-5.2-0.9C9.4,3.9,6.9,6,6.9,9.4c0,2.5,1.8,3.6,4.2,4.2
			C12.2,13.9,12.9,14.1,12.9,14.4L12.9,14.4z M27.4,14.5c-1.2,0-2.1-0.9-2.1-2.4c-0.1-1.7,1.2-3.2,3-3.3c0,0,0,0,0,0
			c1.2,0,2.1,0.9,2.1,2.4C30.6,12.9,29.2,14.4,27.4,14.5C27.5,14.5,27.5,14.5,27.4,14.5L27.4,14.5z M37.8,4.3h-5.4l-0.3,1
			C32,5.6,32,5.9,32,6.2h-0.1c-0.4-1.3-2.1-2.3-4-2.3c-4.2,0-8.3,3.3-8.3,9.2c0,4.2,2.5,6.4,5.7,6.4c1.6,0.1,3.2-0.5,4.4-1.6h0.1
			c-0.1,0.4-0.2,0.8-0.3,1.2l-1.5,9.4l6.3-4.5L37.8,4.3L37.8,4.3z M40.8,4.3L38.4,19h6l1.2-7.4c0.2-1.4,1.2-2.4,2.4-2.4
			c0.7,0,1.2,0.6,1,1.5L47.7,19h6l1.4-9.2c0.6-4.1-1.2-6-4.2-6c-2,0.1-3.8,1.1-5,2.7h-0.1C46,6.3,46.1,6,46.2,5.6l0-1.3
			C46.2,4.3,40.8,4.3,40.8,4.3z M62.6,12.1c0-1.9,1.5-3,3.4-3c1.1,0,2.2,0.4,3.1,1.1L70,4.8c-1.3-0.7-2.7-1-4.2-1
			c-5.5,0-9.3,4-9.3,9c0,3.8,2.5,6.6,6.9,6.6c1.6,0,3.1-0.3,4.6-1l0.8-5.3c-1.1,0.7-2.3,1.1-3.6,1.1C63.6,14.3,62.6,13.5,62.6,12.1
			L62.6,12.1L62.6,12.1z M79.2,3.9c-5,0-9,4-9.1,8.9c0,3.9,2.7,6.7,7.6,6.7c1.9,0,3.8-0.2,5.6-0.8l0.8-4.9c-1.6,0.5-3.3,0.8-5,0.8
			c-1.7,0-2.7-0.5-2.8-1.6h8.4c0.4-1,0.6-2.1,0.6-3.2C85.2,6.6,83.4,3.9,79.2,3.9L79.2,3.9L79.2,3.9z M79.6,10.3h-3
			c0.2-1.1,0.8-1.9,1.8-1.9S79.8,9.2,79.6,10.3L79.6,10.3L79.6,10.3z"/>
	</g>
</g>
</svg>
