<?xml version="1.0" encoding="utf-8"?>
<!-- Generator: Adobe Illustrator 28.1.0, SVG Export Plug-In . SVG Version: 6.00 Build 0)  -->
<svg version="1.1" id="Layer_1" xmlns="http://www.w3.org/2000/svg" xmlns:xlink="http://www.w3.org/1999/xlink" x="0px" y="0px"
	 viewBox="0 0 91 39.7" style="enable-background:new 0 0 91 39.7;" xml:space="preserve">
<style type="text/css">
	.st0{fill:#1C1C1C;}
</style>
<g id="Group_35" transform="translate(-244 -26)">
	<path d="M329.3,31.6h-79.5c-3.2,0-5.7,2.6-5.7,5.7v12.2c0,3.2,2.6,5.7,5.7,5.7h19.6v-0.7h-19.6c-2.8,0-5-2.2-5-5V37.4
		c0-2.8,2.2-5,5-5h79.5c2.8,0,5,2.2,5,5v12.2c0,2.8-2.2,5-5,5h-47.5v0.7h47.5c3.2,0,5.7-2.6,5.7-5.7V37.4
		C335,34.2,332.4,31.6,329.3,31.6z"/>
	<g id="Group_6" transform="translate(-96.814 -411.217)">
		<path id="Path_6" class="st0" d="M353.7,457.2c0,0.4-0.7,0.5-1.4,0.5c-1.7-0.1-3.4-0.6-4.9-1.5l-0.8,5.2c1.6,0.7,3.4,1,5.1,0.9
			c4.7,0,7.5-2.1,7.5-5.5c0-2.3-1.5-3.4-4.5-4.1c-1.1-0.3-1.5-0.5-1.5-0.8c0-0.4,0.7-0.5,1.1-0.5c0.4,0,0.8,0.1,1.2,0.1
			c1.2,0.2,2.4,0.6,3.5,1.1l0.8-5c-1.7-0.6-3.4-0.9-5.2-0.9c-4.3,0-6.8,2.1-6.8,5.6c0,2.5,1.8,3.6,4.2,4.2
			C353,456.8,353.7,456.9,353.7,457.2z M368.3,457.4c-1.2,0-2.1-0.9-2.1-2.4c-0.1-1.7,1.2-3.2,3-3.3c0,0,0,0,0,0
			c1.2,0,2.1,0.9,2.1,2.4C371.4,455.8,370,457.3,368.3,457.4C368.3,457.4,368.3,457.4,368.3,457.4L368.3,457.4z M378.6,447.2h-5.4
			l-0.3,1c-0.1,0.3-0.1,0.6-0.1,0.9h-0.1c-0.4-1.3-2.1-2.3-4-2.3c-4.2,0-8.3,3.3-8.3,9.2c0,4.2,2.5,6.4,5.7,6.4
			c1.6,0.1,3.2-0.5,4.4-1.6h0.1c-0.1,0.4-0.2,0.8-0.3,1.2l-1.5,9.4l6.3-4.5L378.6,447.2z M381.6,447.2l-2.3,14.7h6l1.2-7.4
			c0.2-1.4,1.1-2.4,2.4-2.4c0.7,0,1.1,0.6,1,1.5l-1.3,8.3h6l1.4-9.2c0.6-4.1-1.2-6-4.2-6c-2,0.1-3.8,1.1-5,2.7h-0.1
			c0.2-0.3,0.3-0.6,0.3-0.9l0-1.3H381.6z M403.5,454.9c0-1.9,1.5-3,3.4-3c1.1,0,2.2,0.4,3.1,1.1l0.8-5.4c-1.3-0.7-2.7-1-4.2-1
			c-5.4,0-9.3,3.9-9.3,9c0,3.8,2.5,6.6,6.9,6.6c1.6,0,3.1-0.3,4.6-1l0.9-5.3c-1.1,0.7-2.3,1.1-3.6,1.1
			C404.5,457.1,403.5,456.3,403.5,454.9L403.5,454.9z M420,446.7c-5,0-9,4-9.1,8.9c0,3.9,2.7,6.7,7.6,6.7c1.9,0,3.8-0.2,5.6-0.8
			l0.8-4.9c-1.6,0.5-3.3,0.8-5,0.8c-1.7,0-2.7-0.5-2.8-1.6h8.4c0.4-1,0.6-2.1,0.6-3.2C426,449.4,424.2,446.7,420,446.7L420,446.7z
			 M420.4,453.2h-3c0.2-1.1,0.8-1.9,1.8-1.9C420.2,451.3,420.6,452.1,420.4,453.2L420.4,453.2z"/>
	</g>
</g>
</svg>
