
<!-- Old Logo -->
<!-- <svg xmlns="http://www.w3.org/2000/svg" width="90.952" height="30.215" viewBox="0 0 110.952 30.215">
  <g id="Group_6" data-name="Group 6" transform="translate(-348.814 -442.61)">
    <path id="Path_6" data-name="Path 6" d="M18.762-101.714c0,.576-.945.658-1.932.658a15.407,15.407,0,0,1-6.865-2.1L8.814-95.918A17.559,17.559,0,0,0,15.926-94.6c6.5,0,10.524-2.878,10.524-7.728,0-3.165-2.1-4.686-6.29-5.755-1.48-.37-2.055-.658-2.055-1.11,0-.617.987-.658,1.48-.658a12.357,12.357,0,0,1,1.644.164,16.806,16.806,0,0,1,4.851,1.6l1.11-7.03a19.976,19.976,0,0,0-7.276-1.274c-5.961,0-9.5,3-9.5,7.77,0,3.453,2.467,4.974,5.92,5.837C17.817-102.372,18.762-102.166,18.762-101.714Zm20.349.206c-1.644,0-2.919-1.274-2.919-3.33a4.406,4.406,0,0,1,4.193-4.645c1.685,0,2.919,1.274,2.919,3.33A4.406,4.406,0,0,1,39.111-101.509Zm14.47-14.265H46.017l-.37,1.357a3.877,3.877,0,0,0-.164,1.233H45.4c-.534-1.85-2.878-3.206-5.591-3.206-5.879,0-11.551,4.645-11.551,12.826,0,5.8,3.494,8.962,7.893,8.962a8.343,8.343,0,0,0,6.084-2.261h.082a7.724,7.724,0,0,0-.37,1.727l-1.439,8.962h8.386Zm4.111,0L54.444-95.219h8.386l1.644-10.359c.329-1.973,1.6-3.289,3.371-3.289,1.028,0,1.6.781,1.4,2.055l-1.85,11.593H75.78l2.014-12.826c.9-5.714-1.685-8.345-5.879-8.345a9.3,9.3,0,0,0-6.988,3.741h-.082a2.6,2.6,0,0,0,.37-1.274l.041-1.85Zm30.544,10.853c0-2.672,2.138-4.234,4.81-4.234a7.014,7.014,0,0,1,4.357,1.6l1.151-7.482a11.494,11.494,0,0,0-5.8-1.357c-7.605,0-13.031,5.509-13.031,12.538,0,5.344,3.535,9.249,9.578,9.249A15.156,15.156,0,0,0,95.676-96l1.192-7.441a10.655,10.655,0,0,1-5.015,1.6C89.633-101.838,88.236-102.948,88.236-104.921Zm23.1-11.469a12.632,12.632,0,0,0-12.7,12.456c0,5.385,3.7,9.332,10.565,9.332a23.782,23.782,0,0,0,7.811-1.151l1.11-6.906a27.363,27.363,0,0,1-7.03,1.11c-2.343,0-3.782-.658-3.905-2.261H118.9a14.216,14.216,0,0,0,.863-4.44C119.766-112.649,117.135-116.39,111.339-116.39Zm.534,9H107.68c.247-1.521,1.11-2.631,2.549-2.631S112.2-108.908,111.873-107.387Z" transform="translate(340 559)" fill="#1c1c1c"/>
  </g>
</svg> -->

<svg xmlns="http://www.w3.org/2000/svg" width="91" height="39.743" viewBox="0 0 127 39.743">
  <g id="Group_35" data-name="Group 35" transform="translate(-244 -26)">
    <g id="Rectangle_41" data-name="Rectangle 41" transform="translate(244 26)" fill="#fff" stroke="#1c1c1c" stroke-width="2">
      <rect width="127" height="33" rx="8" stroke="none"/>
      <rect x="1" y="1" width="125" height="31" rx="7" fill="none"/>
    </g>
    <rect id="Rectangle_42" data-name="Rectangle 42" width="16" height="4" transform="translate(280 55)" fill="#fff"/>
    <g id="Group_6" data-name="Group 6" transform="translate(-96.814 -411.217)">
      <path id="Path_6" data-name="Path 6" d="M18.762-101.714c0,.576-.945.658-1.932.658a15.407,15.407,0,0,1-6.865-2.1L8.814-95.918A17.559,17.559,0,0,0,15.926-94.6c6.5,0,10.524-2.878,10.524-7.728,0-3.165-2.1-4.686-6.29-5.755-1.48-.37-2.055-.658-2.055-1.11,0-.617.987-.658,1.48-.658a12.357,12.357,0,0,1,1.644.164,16.806,16.806,0,0,1,4.851,1.6l1.11-7.03a19.976,19.976,0,0,0-7.276-1.274c-5.961,0-9.5,3-9.5,7.77,0,3.453,2.467,4.974,5.92,5.837C17.817-102.372,18.762-102.166,18.762-101.714Zm20.349.206c-1.644,0-2.919-1.274-2.919-3.33a4.406,4.406,0,0,1,4.193-4.645c1.685,0,2.919,1.274,2.919,3.33A4.406,4.406,0,0,1,39.111-101.509Zm14.47-14.265H46.017l-.37,1.357a3.877,3.877,0,0,0-.164,1.233H45.4c-.534-1.85-2.878-3.206-5.591-3.206-5.879,0-11.551,4.645-11.551,12.826,0,5.8,3.494,8.962,7.893,8.962a8.343,8.343,0,0,0,6.084-2.261h.082a7.724,7.724,0,0,0-.37,1.727L39.81-82.04l8.784-6.328Zm4.111,0L54.444-95.219h8.386l1.644-10.359c.329-1.973,1.6-3.289,3.371-3.289,1.028,0,1.6.781,1.4,2.055l-1.85,11.593H75.78l2.014-12.826c.9-5.714-1.685-8.345-5.879-8.345a9.3,9.3,0,0,0-6.988,3.741h-.082a2.6,2.6,0,0,0,.37-1.274l.041-1.85Zm30.544,10.853c0-2.672,2.138-4.234,4.81-4.234a7.014,7.014,0,0,1,4.357,1.6l1.151-7.482a11.494,11.494,0,0,0-5.8-1.357c-7.605,0-13.031,5.509-13.031,12.538,0,5.344,3.535,9.249,9.578,9.249A15.156,15.156,0,0,0,95.676-96l1.192-7.441a10.655,10.655,0,0,1-5.015,1.6C89.633-101.838,88.236-102.948,88.236-104.921Zm23.1-11.469a12.632,12.632,0,0,0-12.7,12.456c0,5.385,3.7,9.332,10.565,9.332a23.782,23.782,0,0,0,7.811-1.151l1.11-6.906a27.363,27.363,0,0,1-7.03,1.11c-2.343,0-3.782-.658-3.905-2.261H118.9a14.216,14.216,0,0,0,.863-4.44C119.766-112.649,117.135-116.39,111.339-116.39Zm.534,9H107.68c.247-1.521,1.11-2.631,2.549-2.631S112.2-108.908,111.873-107.387Z" transform="translate(340 559)" fill="#1c1c1c"/>
    </g>
  </g>
</svg>
