<?xml version="1.0" encoding="UTF-8"?><svg id="Layer_1" xmlns="http://www.w3.org/2000/svg" viewBox="0 0 91 28.47"><g id="Group_35"><path d="M85.27,0H5.73C2.57,0,0,2.57,0,5.73v12.18c0,3.17,2.57,5.73,5.73,5.73h19.61v-.72H5.73c-2.77,0-5.02-2.25-5.02-5.02V5.73c0-2.77,2.25-5.01,5.02-5.01h79.54c2.77,0,5.02,2.25,5.02,5.02v12.18c0,2.77-2.25,5.02-5.02,5.02h-47.46v.72h47.46c3.17,0,5.73-2.57,5.73-5.73V5.73c0-3.17-2.57-5.73-5.73-5.73Z" fill="#fff" stroke-width="0"/><g id="Group_6"><path id="Path_6" d="M12.86,14.38c0,.41-.68.47-1.38.47-1.74-.11-3.42-.62-4.92-1.5l-.82,5.19c1.61.67,3.35.99,5.1.94,4.66,0,7.54-2.06,7.54-5.54,0-2.27-1.5-3.36-4.51-4.12-1.06-.27-1.47-.47-1.47-.8,0-.44.71-.47,1.06-.47.39.01.79.05,1.18.12,1.21.2,2.38.59,3.48,1.15l.8-5.04c-1.67-.63-3.43-.94-5.21-.91-4.27,0-6.81,2.15-6.81,5.57,0,2.47,1.77,3.56,4.24,4.18,1.06.3,1.74.44,1.74.77h-.02ZM27.44,14.53c-1.18,0-2.09-.91-2.09-2.39-.1-1.74,1.24-3.23,2.98-3.33h.03c1.21,0,2.09.91,2.09,2.39.1,1.74-1.24,3.23-2.98,3.33h-.03ZM37.81,4.31h-5.42l-.27.97c-.09.29-.13.58-.12.88h-.06c-.38-1.33-2.06-2.3-4.01-2.3-4.21,0-8.28,3.33-8.28,9.19,0,4.16,2.5,6.42,5.66,6.42,1.61.07,3.18-.51,4.36-1.62h.06c-.14.4-.22.82-.27,1.24l-1.53,9.38,6.29-4.53,3.57-19.64h.02ZM40.76,4.31l-2.33,14.73h6.01l1.18-7.42c.24-1.41,1.15-2.36,2.42-2.36.74,0,1.15.56,1,1.47l-1.33,8.31h6.01l1.44-9.19c.64-4.09-1.21-5.98-4.21-5.98-1.99.1-3.82,1.08-5.01,2.68h-.06c.17-.28.26-.59.27-.91l.03-1.33s-5.42,0-5.42,0ZM62.64,12.08c0-1.91,1.53-3.03,3.45-3.03,1.14.02,2.24.42,3.12,1.15l.82-5.36c-1.28-.68-2.71-1.02-4.16-.97-5.45,0-9.34,3.95-9.34,8.98,0,3.83,2.53,6.63,6.86,6.63,1.58,0,3.14-.34,4.57-1l.85-5.33c-1.08.68-2.32,1.07-3.59,1.15-1.59,0-2.59-.79-2.59-2.21h0ZM79.19,3.86c-4.97-.03-9.03,3.96-9.1,8.93,0,3.86,2.65,6.69,7.57,6.69,1.9.04,3.79-.24,5.6-.82l.8-4.95c-1.64.48-3.33.75-5.04.8-1.68,0-2.71-.47-2.8-1.62h8.39c.37-1.02.58-2.09.62-3.18,0-3.15-1.88-5.83-6.04-5.83h0v-.02ZM79.58,10.31h-3c.18-1.09.8-1.89,1.83-1.89s1.41.8,1.18,1.89h-.01Z" fill="#fff" stroke-width="0"/></g></g></svg>