<svg xmlns="http://www.w3.org/2000/svg" width="230.397" height="206.771" viewBox="0 0 230.397 206.771">
  <g id="Group_37" data-name="Group 37" transform="translate(-82.443 -571.13)">
    <path id="Subtraction_1" data-name="Subtraction 1" d="M-6923.142-466.13h-66.234a56.91,56.91,0,0,1-22.375-4.547,57.835,57.835,0,0,1-9.786-5.329,58.433,58.433,0,0,1-8.537-7.051,58.431,58.431,0,0,1-7.051-8.537,57.84,57.84,0,0,1-5.329-9.786A56.907,56.907,0,0,1-7047-523.753a56.907,56.907,0,0,1,4.547-22.374,57.837,57.837,0,0,1,5.329-9.786,58.428,58.428,0,0,1,7.051-8.537,58.423,58.423,0,0,1,8.537-7.051,57.848,57.848,0,0,1,9.786-5.329,56.911,56.911,0,0,1,22.375-4.547,68.6,68.6,0,0,1,9.147-22.861,73.149,73.149,0,0,1,16.278-18.268,74.951,74.951,0,0,1,21.573-12.11,73.62,73.62,0,0,1,25.03-4.385,71.519,71.519,0,0,1,28.028,5.663,72.07,72.07,0,0,1,12.234,6.643,72.573,72.573,0,0,1,10.661,8.8,72.6,72.6,0,0,1,8.8,10.661A72.135,72.135,0,0,1-6850.982-595a71.52,71.52,0,0,1,5.663,28.028v14.407a38.95,38.95,0,0,1,11,6.227,45.964,45.964,0,0,1,8.854,9.435,49.467,49.467,0,0,1,6.1,11.677,47.124,47.124,0,0,1,2.756,12.953,61.46,61.46,0,0,0-9.308-8.6,61.11,61.11,0,0,0-10.947-6.529,60.686,60.686,0,0,0-12.273-4.146A61.378,61.378,0,0,0-6862.419-533a60.617,60.617,0,0,0-23.744,4.794,61,61,0,0,0-10.362,5.624,61.466,61.466,0,0,0-9.028,7.449,61.45,61.45,0,0,0-7.448,9.028,61,61,0,0,0-5.625,10.362A60.611,60.611,0,0,0-6923.42-472c0,1.959.094,3.933.279,5.869Z" transform="translate(7129.443 1210.13)" fill="#06b276" opacity="0.249"/>
    <path id="Icon_awesome-check" data-name="Icon awesome-check" d="M29.97,69.087,1.292,40.409a4.412,4.412,0,0,1,0-6.24l6.239-6.24a4.412,4.412,0,0,1,6.24,0L33.09,47.248,74.469,5.869a4.412,4.412,0,0,1,6.24,0l6.239,6.24a4.412,4.412,0,0,1,0,6.24L36.21,69.087A4.412,4.412,0,0,1,29.97,69.087Z" transform="translate(223.6 707.522)" fill="#06b276" opacity="0.25"/>
  </g>
</svg>
